 <!DOCTYPE svg PUBLIC "-//W3C//DTD SVG 1.1//EN" "http://www.w3.org/Graphics/SVG/1.1/DTD/svg11.dtd">
<svg xmlns="http://www.w3.org/2000/svg" width="865.76" height="682.89" viewBox="0 0 865.76 682.89">
<defs>
<style xmlns="http://www.w3.org/1999/xhtml">*, ::after, ::before { box-sizing: border-box; }
img, svg { vertical-align: middle; }
</style>
<style xmlns="http://www.w3.org/1999/xhtml">*, body, html { -webkit-font-smoothing: antialiased; }
img, svg { max-width: 100%; }
</style>
</defs>
<rect x="645.86" y="253.19" width="13.77" height="166.32" fill="#e0e0e0"/>
<rect x="649.3" y="87.67" width="6.88" height="183.8" fill="#e0e0e0"/>
<circle cx="652.74" cy="94.03" r="21.28" fill="#ebebeb"/>
<path d="M657.29,117h-9.45a1.29,1.29,0,0,1-1.29-1.29h0a1.28,1.28,0,0,1,1.27-1.29h9.47a1.28,1.28,0,0,1,1.3,1.28h0a1.3,1.3,0,0,1-1.3,1.3Z" fill="#e0e0e0"/>
<path d="M663.16,253.2H642.24a1.43,1.43,0,0,1-1.44-1.41h0a1.43,1.43,0,0,1,1.44-1.44h20.92a1.43,1.43,0,0,1,1.42,1.42v0h0A1.43,1.43,0,0,1,663.16,253.2Z" fill="#e0e0e0"/>
<rect x="54.14" y="251.56" width="13.77" height="166.32" fill="#e0e0e0"/>
<rect x="57.58" y="86.04" width="6.88" height="183.8" fill="#e0e0e0"/>
<circle cx="61.03" cy="92.41" r="21.28" fill="#ebebeb"/>
<path d="M65.57,115.36H56.12a1.3,1.3,0,0,1-1.3-1.3h0a1.3,1.3,0,0,1,1.3-1.3h9.45a1.3,1.3,0,0,1,1.3,1.3h0A1.3,1.3,0,0,1,65.57,115.36Z" fill="#e0e0e0"/>
<path d="M71.41,251.56H50.48a1.44,1.44,0,0,1-1.42-1.44h0a1.42,1.42,0,0,1,1.42-1.42H71.41a1.42,1.42,0,0,1,1.42,1.42h0a1.42,1.42,0,0,1-1.41,1.44Z" fill="#e0e0e0"/>
<rect x="364.6" y="55.94" width="113.79" height="360.65" fill="#f5f5f5"/>
<rect x="421.5" y="55.94" width="56.9" height="359.65" fill="#ebebeb"/>
<rect x="377.6" y="20.53" width="40.18" height="35.4" fill="#f5f5f5"/>
<rect x="408.2" y="20.53" width="9.57" height="35.4" fill="#ebebeb"/>
<polyline points="355.12 55.94 355.12 53.87 481.73 53.87 481.73 55.94" fill="#e0e0e0"/>
<rect x="387.06" y="71.38" width="9.63" height="20.31" fill="#fafafa"/>
<path d="M421.5,99.66c0,.22-12.74.39-28.44.39s-28.46-.17-28.46-.39,12.73-.39,28.46-.39S421.5,99.45,421.5,99.66Z" fill="#e0e0e0"/>
<rect x="444.45" y="71.38" width="9.63" height="20.31" fill="#e0e0e0"/>
<path d="M478.9,99.66c0,.22-12.75.39-28.45.39S422,99.88,422,99.66s12.73-.39,28.46-.39S478.9,99.45,478.9,99.66Z" fill="#e0e0e0"/>
<rect x="444.45" y="111.7" width="9.63" height="20.31" fill="#e0e0e0"/>
<path d="M478.9,140c0,.21-12.75.39-28.45.39S422,140.2,422,140s12.73-.39,28.46-.39S478.9,139.77,478.9,140Z" fill="#e0e0e0"/>
<rect x="444.45" y="153.25" width="9.63" height="20.31" fill="#e0e0e0"/>
<path d="M478.9,181.53c0,.21-12.75.39-28.45.39s-28.46-.18-28.46-.39,12.73-.39,28.46-.39S478.9,181.32,478.9,181.53Z" fill="#e0e0e0"/>
<rect x="444.45" y="194.8" width="9.63" height="20.31" fill="#e0e0e0"/>
<path d="M478.9,223.07c0,.22-12.75.39-28.45.39s-28.46-.17-28.46-.39,12.73-.39,28.46-.39S478.9,222.85,478.9,223.07Z" fill="#e0e0e0"/>
<rect x="444.45" y="235.14" width="9.63" height="20.31" fill="#e0e0e0"/>
<path d="M478.9,263.43c0,.2-12.75.39-28.45.39s-28.46-.19-28.46-.39,12.73-.39,28.46-.39S478.9,263.21,478.9,263.43Z" fill="#e0e0e0"/>
<rect x="444.45" y="275.66" width="9.63" height="20.31" fill="#e0e0e0"/>
<rect x="444.45" y="316.71" width="9.63" height="20.31" fill="#e0e0e0"/>
<path d="M478.9,303.94c0,.22-12.75.39-28.45.39s-28.46-.17-28.46-.39,12.73-.39,28.46-.39S478.9,303.72,478.9,303.94Z" fill="#e0e0e0"/>
<rect x="387.06" y="112.32" width="9.63" height="20.31" fill="#fafafa"/>
<path d="M421.5,140.6c0,.22-12.74.39-28.44.39s-28.46-.17-28.46-.39,12.73-.39,28.46-.39S421.5,140.39,421.5,140.6Z" fill="#e0e0e0"/>
<rect x="387.06" y="153.26" width="9.63" height="20.31" fill="#fafafa"/>
<path d="M421.5,181.54c0,.22-12.74.39-28.44.39s-28.46-.17-28.46-.39,12.73-.38,28.46-.38S421.5,181.33,421.5,181.54Z" fill="#e0e0e0"/>
<rect x="387.06" y="194.2" width="9.63" height="20.31" fill="#fafafa"/>
<path d="M421.5,222.49c0,.21-12.74.39-28.44.39s-28.46-.18-28.46-.39,12.73-.39,28.46-.39S421.5,222.27,421.5,222.49Z" fill="#e0e0e0"/>
<rect x="387.06" y="235.14" width="9.63" height="20.31" fill="#fafafa"/>
<path d="M421.5,263.43c0,.2-12.74.39-28.44.39s-28.46-.19-28.46-.39,12.73-.39,28.46-.39S421.5,263.21,421.5,263.43Z" fill="#e0e0e0"/>
<rect x="387.06" y="276.09" width="9.63" height="20.31" fill="#fafafa"/>
<path d="M421.5,304.37c0,.21-12.74.38-28.44.38s-28.46-.17-28.46-.38,12.73-.39,28.46-.39S421.5,304.15,421.5,304.37Z" fill="#e0e0e0"/>
<rect x="387.06" y="317.03" width="9.63" height="20.31" fill="#fafafa"/>
<rect x="476.06" y="257.81" width="83.66" height="158.78" fill="#e0e0e0"/>
<rect x="520.5" y="257.81" width="39.22" height="158.78" fill="#ebebeb"/>
<rect x="493.6" y="272.74" width="7.52" height="18.28" fill="#f5f5f5"/>
<rect x="493.6" y="344.27" width="7.52" height="18.28" fill="#f5f5f5"/>
<path d="M520.5,298.2c0,.16-9.94.28-22.22.28s-22.22-.12-22.22-.28,9.95-.29,22.22-.29S520.5,298,520.5,298.2Z" fill="#f5f5f5"/>
<rect x="493.6" y="308.78" width="7.52" height="18.28" fill="#f5f5f5"/>
<path d="M520.5,334.24c0,.15-9.94.28-22.22.28s-22.22-.13-22.22-.28,9.95-.3,22.22-.3S520.5,334.08,520.5,334.24Z" fill="#f5f5f5"/>
<rect x="528.84" y="272.74" width="7.52" height="18.28" fill="#e0e0e0"/>
<rect x="545.14" y="272.74" width="7.52" height="18.28" fill="#e0e0e0"/>
<rect x="528.84" y="307.43" width="7.52" height="18.28" fill="#e0e0e0"/>
<rect x="545.14" y="307.43" width="7.52" height="18.28" fill="#e0e0e0"/>
<rect x="528.84" y="342.1" width="7.52" height="18.28" fill="#e0e0e0"/>
<rect x="545.14" y="342.1" width="7.52" height="18.28" fill="#e0e0e0"/>
<rect x="469.78" y="253.96" width="96.24" height="3.98" fill="#e0e0e0"/>
<path d="M560.31,258.32c0,.16-18.7.28-41.76.28s-41.77-.12-41.77-.28,18.71-.28,41.77-.28S560.31,258.16,560.31,258.32Z" fill="#ebebeb"/>
<rect x="286.57" y="160.94" width="97.68" height="255.65" fill="#ebebeb"/>
<rect x="335.41" y="160.94" width="48.83" height="255.65" fill="#e0e0e0"/>
<rect x="297.73" y="130.54" width="34.49" height="30.39" fill="#ebebeb"/>
<rect x="324" y="130.54" width="8.22" height="30.39" fill="#e0e0e0"/>
<rect x="278.44" y="159.16" width="108.67" height="1.78" fill="#e0e0e0"/>
<rect x="305.85" y="174.18" width="8.27" height="17.43" fill="#fff"/>
<path d="M335.41,198.47c0,.18-11,.34-24.41.34s-24.43-.16-24.43-.34,10.95-.33,24.43-.33S335.41,198.27,335.41,198.47Z" fill="#e0e0e0"/>
<rect x="355.12" y="174.18" width="8.27" height="17.43" fill="#f5f5f5"/>
<path d="M384.64,198.47c0,.18-10.95.34-24.42.34s-24.42-.16-24.42-.34,10.94-.33,24.42-.33S384.64,198.27,384.64,198.47Z" fill="#ebebeb"/>
<rect x="355.12" y="208.79" width="8.27" height="17.43" fill="#f5f5f5"/>
<path d="M384.64,233.07c0,.18-10.95.33-24.42.33s-24.42-.15-24.42-.33,10.94-.33,24.42-.33S384.64,232.89,384.64,233.07Z" fill="#ebebeb"/>
<rect x="355.12" y="244.45" width="8.27" height="17.43" fill="#f5f5f5"/>
<path d="M384.64,268.73c0,.18-10.95.33-24.42.33s-24.42-.15-24.42-.33,10.94-.34,24.42-.34S384.64,268.55,384.64,268.73Z" fill="#ebebeb"/>
<rect x="355.12" y="280.1" width="8.27" height="17.43" fill="#f5f5f5"/>
<path d="M384.64,304.38c0,.18-10.95.34-24.42.34s-24.42-.16-24.42-.34,10.94-.33,24.42-.33S384.64,304.19,384.64,304.38Z" fill="#ebebeb"/>
<rect x="355.12" y="314.74" width="8.27" height="17.43" fill="#f5f5f5"/>
<path d="M384.64,339c0,.18-10.95.34-24.42.34s-24.42-.16-24.42-.34,10.94-.33,24.42-.33S384.64,338.83,384.64,339Z" fill="#ebebeb"/>
<rect x="355.12" y="349.52" width="8.27" height="17.43" fill="#f5f5f5"/>
<rect x="355.12" y="384.75" width="8.27" height="17.43" fill="#f5f5f5"/>
<path d="M384.64,373.79c0,.19-10.95.34-24.42.34s-24.42-.15-24.42-.34,10.94-.33,24.42-.33S384.64,373.61,384.64,373.79Z" fill="#ebebeb"/>
<rect x="305.85" y="209.33" width="8.27" height="17.43" fill="#fff"/>
<path d="M335.41,233.59c0,.2-11,.34-24.41.34s-24.43-.14-24.43-.34,10.95-.33,24.43-.33S335.41,233.41,335.41,233.59Z" fill="#e0e0e0"/>
<rect x="305.85" y="244.47" width="8.27" height="17.43" fill="#fff"/>
<path d="M335.41,268.74c0,.18-11,.33-24.41.33s-24.43-.15-24.43-.33,10.95-.34,24.43-.34S335.41,268.56,335.41,268.74Z" fill="#e0e0e0"/>
<rect x="305.85" y="279.6" width="8.27" height="17.43" fill="#fff"/>
<path d="M335.41,303.88c0,.18-11,.33-24.41.33s-24.43-.15-24.43-.33,10.95-.33,24.43-.33S335.41,303.7,335.41,303.88Z" fill="#e0e0e0"/>
<rect x="305.85" y="314.74" width="8.27" height="17.43" fill="#fff"/>
<path d="M335.41,339c0,.18-11,.34-24.41.34s-24.43-.16-24.43-.34,10.95-.33,24.43-.33S335.41,338.83,335.41,339Z" fill="#e0e0e0"/>
<rect x="305.85" y="349.88" width="8.27" height="17.43" fill="#fff"/>
<path d="M335.41,374.15c0,.18-11,.34-24.41.34s-24.43-.16-24.43-.34,10.95-.33,24.43-.33S335.41,374,335.41,374.15Z" fill="#e0e0e0"/>
<rect x="305.85" y="385.03" width="8.27" height="17.43" fill="#fff"/>
<rect x="228.22" y="257.81" width="83.66" height="158.78" fill="#e0e0e0"/>
<rect x="272.66" y="257.81" width="39.22" height="158.78" fill="#ebebeb"/>
<rect x="245.76" y="272.74" width="7.52" height="18.28" fill="#f5f5f5"/>
<rect x="245.76" y="344.27" width="7.52" height="18.28" fill="#f5f5f5"/>
<path d="M272.66,298.2c0,.16-10,.28-22.22.28s-22.22-.12-22.22-.28,9.95-.29,22.22-.29S272.66,298,272.66,298.2Z" fill="#f5f5f5"/>
<rect x="245.76" y="308.78" width="7.52" height="18.28" fill="#f5f5f5"/>
<path d="M272.66,334.24c0,.15-10,.28-22.22.28s-22.22-.13-22.22-.28,9.95-.3,22.22-.3S272.66,334.08,272.66,334.24Z" fill="#f5f5f5"/>
<rect x="280.99" y="272.74" width="7.52" height="18.28" fill="#e0e0e0"/>
<rect x="297.3" y="272.74" width="7.52" height="18.28" fill="#e0e0e0"/>
<rect x="280.99" y="307.43" width="7.52" height="18.28" fill="#e0e0e0"/>
<rect x="297.3" y="307.43" width="7.52" height="18.28" fill="#e0e0e0"/>
<rect x="280.99" y="342.1" width="7.52" height="18.28" fill="#e0e0e0"/>
<rect x="297.3" y="342.1" width="7.52" height="18.28" fill="#e0e0e0"/>
<rect x="221.93" y="253.96" width="96.24" height="3.98" fill="#e0e0e0"/>
<path d="M312.47,258.32c0,.16-18.7.28-41.77.28s-41.76-.12-41.76-.28,18.7-.28,41.76-.28S312.47,258.16,312.47,258.32Z" fill="#ebebeb"/>
<rect x="173.25" y="317.35" width="74.9" height="98.79" fill="#ebebeb"/>
<rect x="213.02" y="317.35" width="35.11" height="98.79" fill="#e0e0e0"/>
<rect x="188.95" y="330.73" width="6.74" height="16.36" fill="#f5f5f5"/>
<rect x="188.95" y="394.77" width="6.74" height="16.36" fill="#f5f5f5"/>
<path d="M213,353.51c0,.19-8.91.33-19.89.33s-19.88-.14-19.88-.33,8.9-.34,19.88-.34S213,353.33,213,353.51Z" fill="#f5f5f5"/>
<rect x="188.95" y="362.99" width="6.74" height="16.36" fill="#f5f5f5"/>
<path d="M213,385.77c0,.18-8.91.34-19.89.34s-19.88-.16-19.88-.34,8.9-.33,19.88-.33S213,385.59,213,385.77Z" fill="#f5f5f5"/>
<rect x="220.47" y="330.73" width="6.74" height="16.36" fill="#f5f5f5"/>
<rect x="235.09" y="330.73" width="6.74" height="16.36" fill="#f5f5f5"/>
<rect x="220.47" y="361.77" width="6.74" height="16.36" fill="#f5f5f5"/>
<rect x="235.09" y="361.77" width="6.74" height="16.36" fill="#f5f5f5"/>
<rect x="220.47" y="392.82" width="6.74" height="16.36" fill="#f5f5f5"/>
<rect x="235.09" y="392.82" width="6.74" height="16.36" fill="#f5f5f5"/>
<rect x="167.62" y="313.91" width="86.16" height="3.56" fill="#e0e0e0"/>
<path d="M248.66,317.82c0,.18-16.74.33-37.38.33s-37.39-.15-37.39-.33,16.74-.34,37.39-.34S248.66,317.66,248.66,317.82Z" fill="#ebebeb"/>
<path d="M506.38,123.18h68.31s-6.08-10.94-23.62-9.4c-16.8,1.53-17.65-5.4-26.19-6.25S509.23,113.22,506.38,123.18Z" fill="#ebebeb"/>
<path d="M221.52,68.89h68.25s-6.08-11-23.62-9.39C249.36,61,248.51,54.1,240,53.24S224.36,58.93,221.52,68.89Z" fill="#ebebeb"/>
<path d="M672.25,136.17H796.56s-10.94-20-43-17c-30.55,2.77-32.11-9.86-47.65-11.4S677.43,118,672.25,136.17Z" fill="#fafafa"/>
<path d="M710.83,83.8H818.75S809.21,66.43,781.43,69c-26.53,2.44-27.88-8.51-41.35-9.88S715.33,68.06,710.83,83.8Z" fill="#ebebeb"/>
<rect x="19.27" y="417" width="65.97" height="15.52" fill="#ebebeb"/>
<rect x="86.74" y="417" width="65.97" height="15.52" fill="#f5f5f5"/>
<rect x="154.2" y="417" width="65.97" height="15.52" fill="#ebebeb"/>
<rect x="221.66" y="417" width="65.97" height="15.52" fill="#f5f5f5"/>
<rect x="289.13" y="417" width="65.97" height="15.52" fill="#ebebeb"/>
<rect x="356.59" y="417" width="65.97" height="15.52" fill="#f5f5f5"/>
<rect x="424.06" y="417" width="65.97" height="15.52" fill="#ebebeb"/>
<rect x="491.52" y="417" width="65.97" height="15.52" fill="#ebebeb"/>
<rect x="558.99" y="417" width="65.97" height="15.52" fill="#f5f5f5"/>
<rect x="626.45" y="417" width="65.97" height="15.52" fill="#ebebeb"/>
<rect x="693.91" y="417" width="65.97" height="15.52" fill="#f5f5f5"/>
<rect x="761.39" y="417" width="65.97" height="15.52" fill="#ebebeb"/>
<path d="M781.52,430.1l-29-21.48L785.83,380H751.37l-14.06,14.61L717.46,378.3,687.13,383l32.53,25.64-29.29,24.23a7.57,7.57,0,0,0,.26,11.87l29.59,22.35L686,494.37H722.7L735.93,480l13.79,14.34h34.73L753,467.62l28.86-23.77A8.72,8.72,0,0,0,781.52,430.1Zm-45.87,23.46-18.74-15.71,19.3-15.17,17.92,15.72Z" fill="#e6e7e8"/>
<rect x="674.86" y="487.89" width="123.24" height="23.43" fill="#2f2e41" data-secondary="true"/>
<rect x="674.86" y="361.2" width="123.24" height="23.43" fill="#2f2e41" data-secondary="true"/>
<rect x="328.46" y="341.71" width="439.45" height="28.55" transform="translate(-14.8 23.91) rotate(-2.47)" fill="#3f4347"/>
<polygon points="768.35 361.54 592.47 388.24 591.14 357.45 768.35 361.54" fill="#58595b"/>
<path d="M83.28,351.41l-31.43,1.35a1.64,1.64,0,0,0-1.29,1.87l.85,19.65.13,3c0,1,.68,1.78,1.44,1.75l31.43-1.35c.75,0,1.32-.87,1.28-1.87l-.13-3-.85-19.65C84.67,352.16,84,351.38,83.28,351.41Z" fill="#0071f2" data-primary="true"/>
<path d="M69.33,385.66l-12.53.53a.66.66,0,0,0-.51.75l.33,7.83.05,1.18c0,.4.28.72.58.7l12.53-.54c.3,0,.53-.34.51-.74l-.05-1.18-.34-7.84C69.89,386,69.63,385.64,69.33,385.66Z" fill="#0071f2" data-primary="true"/>
<path d="M95.62,377.46a2,2,0,0,1-1.52,2.22l-37.31,1.6c-.89,0-1.65-.89-1.7-2.08l-1.16-26.83a1.94,1.94,0,0,1,1.52-2.22l37.31-1.6c.89,0,1.66.89,1.71,2.08Z" fill="#bcbec0"/>
<path d="M95.47,374l-1-23.32c0-1.19-.82-2.12-1.71-2.08l-37.31,1.6a1.94,1.94,0,0,0-1.52,2.22l1,23.32Z" fill="#e6e7e8"/>
<rect x="103.16" y="358.65" width="175.67" height="64.28" transform="translate(-16.63 8.58) rotate(-2.47)" fill="#3f4347"/>
<path d="M309.65,278.61,69.45,289a15.26,15.26,0,0,0-14.59,15.91l4.67,108.47a15.26,15.26,0,0,0,15.91,14.6L121,426a64.86,64.86,0,0,1,129.24-5.57l65.36-2.81a15.26,15.26,0,0,0,14.59-15.91L325.55,293.2l-.62-14.45Z" fill="#0071f2" data-primary="true"/>
<path d="M314.92,401,246.53,404c-18.57-35.72-47.72-41.49-63.47-40.81-26.25,1.13-50.1,19.77-59.72,46.11l-48.62,2.09c-8.42.36-15.51-5.36-15.83-12.77l.64,14.75a15.26,15.26,0,0,0,15.91,14.6L121,426a64.86,64.86,0,0,1,129.24-5.57l65.36-2.81a15.26,15.26,0,0,0,14.59-15.91l-.63-14.76C329.91,394.34,323.34,400.65,314.92,401Z" fill="#0071f2" data-primary="true"/>
<polygon points="324.93 278.75 320.26 170.32 149.49 177.67 98.67 288.49 324.93 278.75" fill="#0071f2" data-primary="true"/>
<path d="M320,163.28l-171.81,7.39a3.52,3.52,0,0,0,.31,7l171.8-7.39Z" fill="#0071f2" data-primary="true"/>
<g opacity="0.2">
<path d="M320,163.28l-171.81,7.39a3.52,3.52,0,0,0,.31,7l171.8-7.39Z"/>
</g>
<g opacity="0.6">
<polygon points="114.54 280.02 155.1 191.57 142.92 192.09 102.36 280.55 114.54 280.02" fill="#fff"/>
</g>
<g opacity="0.6">
<path d="M192.32,190.52a9.59,9.59,0,0,0-8.42,5.81l-30.09,67.33a9.6,9.6,0,0,0,8.89,14.11l32.44-1.4v0a8.42,8.42,0,0,0,.87,0,9.62,9.62,0,0,0,9.19-10l-2.87-66.63A9.6,9.6,0,0,0,192.32,190.52Z" fill="#fff"/>
</g>
<g opacity="0.6">
<rect x="218.59" y="187.58" width="85.56" height="85.9" rx="22.12" transform="translate(-9.67 11.45) rotate(-2.47)" fill="#fff"/>
</g>
<g opacity="0.2">
<polygon points="110.11 263.65 102.36 280.55 114.54 280.02 122.29 263.13 110.11 263.65" fill="#fff"/>
</g>
<rect x="46.43" y="400.07" width="67.25" height="38.76" rx="2.68" transform="translate(-17.97 3.83) rotate(-2.47)" fill="#a7a9ac"/>
<path d="M114.18,430.32l-1.24-29a2.7,2.7,0,0,0-2.8-2.56l-61.83,2.67a2.67,2.67,0,0,0-2.56,2.79l1.25,29Z" fill="#e6e7e8"/>
<circle cx="185.85" cy="427.94" r="57.62" transform="translate(-96.55 56.56) rotate(-13.77)" fill="#2f2e41" data-secondary="true"/>
<g opacity="0.2">
<path d="M187.86,474.56c-30.83,1.32-57-19.52-59.63-47,0,1,0,1.92.05,2.88a57.62,57.62,0,0,0,115.14-4.95c0-1-.11-1.93-.19-2.88C242.91,450.22,218.69,473.23,187.86,474.56Z"/>
</g>
<path d="M185.82,460.9a33,33,0,1,1,33-34.37h0a33,33,0,0,1-31.51,34.34Zm0-59.91-1.17,0a27,27,0,1,0,28.09,25.78h0A27,27,0,0,0,185.86,401Z" fill="#e6e7e8"/>
<path d="M194.59,427.57c-.71-16.53-5.2-29.76-10-29.55s-8.16,13.77-7.45,30.3,5.2,29.76,10,29.55S195.31,444.1,194.59,427.57Z" fill="#bcbec0"/>
<path d="M191.77,421.5c-12.19-11.19-24.72-17.37-28-13.81s4,15.52,16.16,26.7,24.72,17.37,28,13.8S204,432.68,191.77,421.5Z" fill="#bcbec0"/>
<path d="M185.48,419.2c-16.53.71-29.76,5.2-29.56,10s13.78,8.17,30.31,7.46,29.76-5.21,29.55-10S202,418.49,185.48,419.2Z" fill="#bcbec0"/>
<path d="M179.4,422c-11.18,12.19-17.36,24.72-13.8,28s15.52-4,26.7-16.16,17.36-24.72,13.8-28S190.59,409.84,179.4,422Z" fill="#bcbec0"/>
<path d="M211.38,426.85A25.55,25.55,0,1,0,187,453.48,25.56,25.56,0,0,0,211.38,426.85Z" fill="#e6e7e8"/>
<path d="M195.61,427.52a9.77,9.77,0,1,0-9.34,10.18A9.77,9.77,0,0,0,195.61,427.52Z" fill="#fff"/>
<path d="M185.84,441.21a13.15,13.15,0,1,1,.58,0Zm0-19.53h-.28a6.27,6.27,0,0,0-6,6.53,6.27,6.27,0,1,0,12.52-.54h0a6.26,6.26,0,0,0-6.25-6Z" fill="#2f2e41" data-secondary="true"/>
<circle cx="603.63" cy="408.51" r="57.62" transform="translate(-79.91 155.48) rotate(-13.77)" fill="#2f2e41" data-secondary="true"/>
<g opacity="0.2">
<path d="M605.64,455.13c-30.83,1.32-56.95-19.52-59.63-47,0,1,0,1.92,0,2.88a57.62,57.62,0,0,0,115.14-5c0-1-.11-1.92-.19-2.87C660.69,430.79,636.47,453.8,605.64,455.13Z"/>
</g>
<path d="M603.6,441.47a33,33,0,1,1,33-34.37h0a33,33,0,0,1-31.51,34.34Zm0-59.91-1.17,0a27.07,27.07,0,1,0,1.17,0Z" fill="#e6e7e8"/>
<path d="M612.37,408.14c-.71-16.53-5.2-29.76-10-29.55s-8.16,13.77-7.45,30.3,5.2,29.76,10,29.55S613.09,424.66,612.37,408.14Z" fill="#bcbec0"/>
<path d="M609.55,402.06c-12.19-11.18-24.72-17.36-28-13.8s4,15.52,16.16,26.7,24.72,17.36,28,13.8S621.74,413.25,609.55,402.06Z" fill="#bcbec0"/>
<path d="M603.26,399.77c-16.53.71-29.76,5.2-29.56,10S587.48,418,604,417.26s29.76-5.21,29.55-10S619.78,399.06,603.26,399.77Z" fill="#bcbec0"/>
<path d="M597.18,402.6c-11.18,12.19-17.36,24.72-13.8,28s15.52-4,26.7-16.16,17.36-24.72,13.8-28S608.37,390.41,597.18,402.6Z" fill="#bcbec0"/>
<path d="M629.16,407.41A25.55,25.55,0,1,0,604.73,434,25.55,25.55,0,0,0,629.16,407.41Z" fill="#e6e7e8"/>
<path d="M613.39,408.09a9.77,9.77,0,1,0-9.34,10.18A9.75,9.75,0,0,0,613.39,408.09Z" fill="#fff"/>
<path d="M603.62,421.78a13.26,13.26,0,1,1,13.27-13.84h0a13.28,13.28,0,0,1-12.69,13.83Zm0-19.53h-.28a6.27,6.27,0,1,0,6.53,6h0a6.26,6.26,0,0,0-6.25-6Z" fill="#2f2e41" data-secondary="true"/>
<g opacity="0.2">
<path d="M327,326.26l-.42-9.7-4.92.21-4.85-112.55a27.82,27.82,0,0,0-29-26.6L187,182a13.53,13.53,0,0,0-11.77,8.11l-34.77,77.8,2.44,56.59-87,3.75.42,9.71,87-3.75.46,10.72.14,3.23c0,.14,0,.28,0,.41,0,.29,0,.58.07.86l0,.7h.06a12,12,0,0,0,12.37,10l21-.9c29.18-1.25,51.14,7.42,65.25,25.81a66.35,66.35,0,0,1,12.59,28.29l.29,2.21L312.87,413l.36,0h.51a12,12,0,0,0,11.5-12.54l-3.18-73.94ZM145.35,268.8,179.67,192a8.63,8.63,0,0,1,7.53-5.2L288,182.48a22.95,22.95,0,0,1,23.92,22L316.79,317l-169,7.28Zm175,131.82a7.16,7.16,0,0,1-6.86,7.47c-.21,0-.43,0-.64,0h-1.3l-.08.1-51.81,2.23a72.14,72.14,0,0,0-13-28.24c-9.89-13-28.91-28-64-28-1.78,0-3.62,0-5.49.12l-21,.91a7.18,7.18,0,0,1-5.16-1.89,7.1,7.1,0,0,1-2.31-5q0-.33,0-.66l.08-2.65h-.23L148.16,334l169-7.28Z"/>
</g>
<path d="M307.29,302.6a7.58,7.58,0,0,1-7.25,7.9l-21,.9a7.58,7.58,0,0,1-7.9-7.25h0a7.58,7.58,0,0,1,7.25-7.9l21-.9a7.58,7.58,0,0,1,7.9,7.25Z" fill="#0071f2" data-primary="true"/>
<g opacity="0.6">
<path d="M307.29,302.6a7.58,7.58,0,0,1-7.25,7.9l-21,.9a7.58,7.58,0,0,1-7.9-7.25h0a7.58,7.58,0,0,1,7.25-7.9l21-.9a7.58,7.58,0,0,1,7.9,7.25Z" fill="#fff"/>
</g>
<path d="M307.13,298.81a3.79,3.79,0,0,1-3.63,3.95L274.9,304a3.79,3.79,0,0,1-4-3.63h0a3.8,3.8,0,0,1,3.63-3.95l28.61-1.23a3.8,3.8,0,0,1,3.95,3.63Z" fill="#e6e7e8"/>
<path d="M271,300.49a3.79,3.79,0,0,0,3.94,3.5l28.6-1.23a3.8,3.8,0,0,0,3.63-3.83Z" fill="#ebebeb"/>
<path d="M89.77,312c.17,3.85-4.38,7.18-10.16,7.43s-10.6-2.67-10.76-6.53,4.38-7.18,10.16-7.43S89.61,308.11,89.77,312Z" fill="#fff"/>
<path d="M87.42,312.06a8.12,8.12,0,1,0-7.76,8.46A8.12,8.12,0,0,0,87.42,312.06Z" fill="#0071f2" data-primary="true"/>
<g opacity="0.6">
<path d="M87.42,312.06a8.12,8.12,0,1,0-7.76,8.46A8.12,8.12,0,0,0,87.42,312.06Z" fill="#fff"/>
</g>
<g opacity="0.6">
<path d="M79.48,316.31c-4.07.18-7.53-1.9-8.24-4.76a8.12,8.12,0,1,0,16.18.51,9.37,9.37,0,0,0-.14-1.2C86.82,313.77,83.55,316.14,79.48,316.31Z" fill="#fff"/>
</g>
<rect x="338.49" y="42.11" width="459.14" height="298.6" transform="translate(-7.71 24.61) rotate(-2.47)" fill="#e6e7e8"/>
<rect x="345.97" y="349.12" width="60.35" height="40.63" transform="translate(-15.54 16.52) rotate(-2.47)" fill="#2e3135"/>
<g opacity="0.2">
<rect x="357.32" y="349.13" width="36.91" height="23.32" transform="translate(-15.17 16.5) rotate(-2.47)"/>
</g>
<path d="M540,365.25c.44,10.26-9.84,19-23,19.6L444.08,388c-13.12.57-24.12-7.29-24.56-17.55h0c-.44-10.26,9.84-19,23-19.61l72.93-3.14c13.12-.56,24.11,7.3,24.56,17.56Z" fill="#d1d3d4"/>
<rect x="441.74" y="350.75" width="6" height="37.2" transform="translate(-15.47 19.47) rotate(-2.46)" fill="#44433f"/>
<rect x="511.75" y="347.74" width="6" height="37.2" transform="translate(-15.28 22.48) rotate(-2.47)" fill="#44433f"/>
<g opacity="0.11">
<path d="M573.07,307.59c-92.71,4-176.64-20.84-232.5-62.88l4.56,105.73,458.71-19.75L799.29,225C747.25,271.65,665.78,303.6,573.07,307.59Z" fill="#d1d3d4"/>
</g>
<g opacity="0.2">
<path d="M240.37,203.3a186.92,186.92,0,0,0-22.08,2.27,22.41,22.41,0,0,0-.56,6l1.79,41.63a22.12,22.12,0,0,0,23,21.14l41.29-1.78a22.11,22.11,0,0,0,21.15-23l-1.64-37.89A180.07,180.07,0,0,0,240.37,203.3Z" fill="#fff"/>
</g>
<g opacity="0.2">
<path d="M220.53,258.9a22.13,22.13,0,0,0,22,15.43l41.29-1.78a22.11,22.11,0,0,0,20.63-17.26Z" fill="#fff"/>
</g>
<g opacity="0.2">
<path d="M173.77,219l-20,44.66a9.6,9.6,0,0,0,8.89,14.11l32.44-1.4v0a8.42,8.42,0,0,0,.87,0,9.62,9.62,0,0,0,9.19-10l-2.48-57.51A173.75,173.75,0,0,0,173.77,219Z" fill="#fff"/>
</g>
<g opacity="0.2">
<path d="M154.67,261.74l-.86,1.92a9.6,9.6,0,0,0,8.89,14.11l32.44-1.4v0a8.42,8.42,0,0,0,.87,0,9.62,9.62,0,0,0,9.19-10l-.3-6.76Z" fill="#fff"/>
</g>
<path d="M216.93,548.54c1.15.57,22.14,7.89,22.14,7.89l-12.32,32.74-29.66-13.09Z" fill="#f9b499"/>
<rect x="438.79" y="566.64" width="32.93" height="24.65" fill="#f9b499"/>
<path d="M224.9,549.17c-1,4.12-8.17,7.84-8.17,7.84-5.77,7.32-1,11.17-1,11.17,4.43-1.54,4.62,2.7,4.62,2.7l.19,15.63c-.58,4.47-7.12,4.78-7.12,4.78a143.7,143.7,0,0,0-21.9,13.05,22.27,22.27,0,0,0-7.25,8.65c-7.56,16.16-14.57,10.46-14.57,10.46-2.31-14.44,8.67-42.75,8.67-42.75,7.12-17.34,12.32-40.06,12.32-40.06,9.25.19,22.73,4.24,22.73,4.24,4.81,1.94,7.85,2.19,9.52,2.06A1.83,1.83,0,0,1,224.9,549.17Z" fill="#0071f2" data-primary="true"/>
<path d="M178.41,580.7s-11,28.31-8.67,42.75a37.26,37.26,0,0,1-7-.93,2.91,2.91,0,0,1-2.11-3.62l22.18-78.84,7.89.58S185.53,563.36,178.41,580.7Z" fill="#2f2e41" data-secondary="true"/>
<path d="M341.89,287.3s-39.65,2.2-48.89,15.88a170,170,0,0,0-22.73,47.37l39.1,14.83L308,411l94,2.31,2.31-55.85s18.49-2.12,28.7-12.91c0,0-15-23.88-20.22-37.55,0,0-10.4-21.76-39.68-18.3l-13.48,2.12Z" fill="#fff"/>
<path d="M309.37,365.88a.39.39,0,0,1-.15,0,.5.5,0,0,1-.33-.62L317,339a.5.5,0,1,1,.95.3l-8.08,26.19A.5.5,0,0,1,309.37,365.88Z" fill="#e6e6e6"/>
<path d="M314.51,349a.5.5,0,0,1-.34-.88l6.61-5.87a.5.5,0,0,1,.67.75l-6.61,5.87A.5.5,0,0,1,314.51,349Z" fill="#e6e6e6"/>
<path d="M322.46,318.31h0a.49.49,0,0,1-.46-.53,31,31,0,0,0-9.78-25.13.49.49,0,0,1-.07-.7.49.49,0,0,1,.7-.08,32.07,32.07,0,0,1,10.14,26A.5.5,0,0,1,322.46,318.31Z" fill="#e6e6e6"/>
<path d="M337.49,346.7l61.24-.77,5,68.18,98.77,13.24s31.38,25.5,1.56,95.19l-19.64,46-57.2.77s30.24-71.45,26.19-93.79c0,0-32-7.31-83.19-1.54,0,0,28.88,110.93-.39,135.2,0,0-17.91,25.61-93.21,7.9l-57.39-17.34,19.83-55.85s48.54,16.18,85.13,20.22c0,0-5.78-40-15.8-74.72,0,0-15.26-55.63-.5-82.41l21.11-.4Z" fill="#0071f2" data-primary="true"/>
<g opacity="0.2">
<path d="M337.49,346.7l61.24-.77,5,68.18,98.77,13.24s31.38,25.5,1.56,95.19l-19.64,46-57.2.77s30.24-71.45,26.19-93.79c0,0-32-7.31-83.19-1.54,0,0,28.88,110.93-.39,135.2,0,0-17.91,25.61-93.21,7.9l-57.39-17.34,19.83-55.85s48.54,16.18,85.13,20.22c0,0-5.78-40-15.8-74.72,0,0-15.26-55.63-.5-82.41l21.11-.4Z"/>
</g>
<g opacity="0.2">
<polygon points="342.49 355.18 394.3 356.91 394.68 390.23 368.3 400.82 342.3 392.54 342.49 355.18"/>
</g>
<g opacity="0.2">
<rect x="367.98" y="333.86" width="1" height="51.85" transform="translate(-0.58 718.98) rotate(-88.54)"/>
</g>
<rect x="338.26" y="340.92" width="11.94" height="6.55" fill="#2f2e41" data-secondary="true"/>
<rect x="386.02" y="340.54" width="11.94" height="6.55" fill="#2f2e41" data-secondary="true"/>
<circle cx="344.13" cy="347.57" r="3.18" fill="#fff"/>
<circle cx="392.08" cy="347.57" r="3.18" fill="#fff"/>
<path d="M339,340.73s-3.86-34.86-13.87-51.42l7.7-1.15s13.59,27.53,14.89,52.86Z" fill="#0071f2" data-primary="true"/>
<path d="M387.79,340.47h7.27s2.06-36.12-6.54-51.16a65.23,65.23,0,0,0-8.07-.92S388.22,304,387.79,340.47Z" fill="#0071f2" data-primary="true"/>
<path d="M404.31,358a.51.51,0,0,1-.5-.5l-.19-19.06a.5.5,0,0,1,.5-.51.48.48,0,0,1,.5.5l.19,19.06a.5.5,0,0,1-.49.51Z" fill="#e6e6e6"/>
<path d="M404,345.53a.47.47,0,0,1-.35-.14.48.48,0,0,1,0-.7l4.32-4.5a.5.5,0,0,1,.72.7l-4.32,4.49A.51.51,0,0,1,404,345.53Z" fill="#e6e6e6"/>
<path d="M364.43,301.61c-7.82,0-15.79-3.58-16.17-3.76a.49.49,0,0,1-.25-.66.5.5,0,0,1,.66-.25c.1.05,10.56,4.74,19,3.43a.51.51,0,0,1,.57.42.51.51,0,0,1-.42.57A22.1,22.1,0,0,1,364.43,301.61Z" fill="#e6e6e6"/>
<path d="M430.25,347.17l6.42,7.62-33.24,25,.88-22.3A56,56,0,0,0,430.25,347.17Z" fill="#f9b499"/>
<g opacity="0.2">
<path d="M229.06,601l-.18,0a.5.5,0,0,1-.29-.64l19.07-51.23a.5.5,0,1,1,.93.35l-19.06,51.23A.51.51,0,0,1,229.06,601Z"/>
</g>
<g opacity="0.2">
<path d="M318.5,581.26c-30.08,0-82.65-17.61-83.25-17.81a.5.5,0,0,1,.32-.94c.67.22,66.62,22.3,92.67,16.91a7.44,7.44,0,0,0,5.94-7.62c-.22-5.22-1.15-14.65-4.31-29.9-.82-3.49-20.23-86-19.46-103.74a.5.5,0,1,1,1,0c-.76,17.64,19.23,102.62,19.44,103.48C334,557,335,566.5,335.18,571.75a8.43,8.43,0,0,1-6.74,8.64A49.55,49.55,0,0,1,318.5,581.26Z"/>
</g>
<g opacity="0.2">
<path d="M370.23,474.5h-.09a.51.51,0,0,1-.41-.58c3-18.45,6.32-45.92,6.35-46.2a.5.5,0,0,1,.56-.43.5.5,0,0,1,.44.55c0,.28-3.31,27.77-6.36,46.24A.49.49,0,0,1,370.23,474.5Z"/>
</g>
<g opacity="0.2">
<path d="M370.63,469.47a.49.49,0,0,1-.49-.41.48.48,0,0,1,.39-.58l49.86-9.8a.5.5,0,0,1,.59.4.48.48,0,0,1-.39.58l-49.87,9.8Z"/>
</g>
<g opacity="0.2">
<path d="M371,465.84a.5.5,0,0,1-.49-.4.49.49,0,0,1,.38-.59c10.88-2.4,14.21-31.25,14.25-31.54a.5.5,0,0,1,.55-.44.5.5,0,0,1,.44.55c-.14,1.22-3.45,29.85-15,32.41Z"/>
</g>
<g opacity="0.2">
<path d="M439.56,564.06a.39.39,0,0,1-.18,0,.5.5,0,0,1-.29-.64c25.81-66.24,24.06-88.15,24-88.37a.51.51,0,0,1,.45-.54.5.5,0,0,1,.55.45c0,.21,1.83,22.26-24.11,88.82A.48.48,0,0,1,439.56,564.06Z"/>
</g>
<path d="M524.68,613.05c-17.31,6.7-45.3,3.56-53.4,2.45a30.09,30.09,0,0,0-4.84-.26l-27.85.7-.91-33.5a2.57,2.57,0,0,1,2.9-2.62c3.25.47,6.1,4.92,6.1,4.92,5.4,4.43,13.48-1,13.48-1l-.6-1.15a2.36,2.36,0,0,1,1.38-3.35l14.54-4.53a5.5,5.5,0,0,1,5.52,1.36l23,23a10.85,10.85,0,0,0,6.75,3.13C527.37,603.63,524.68,613.05,524.68,613.05Z" fill="#0071f2" data-primary="true"/>
<path d="M518,623.45H438.59v-7.51l27.85-.7a30.09,30.09,0,0,1,4.84.26c8.1,1.11,36.09,4.25,53.4-2.45l.12,3.32A6.82,6.82,0,0,1,518,623.45Z" fill="#2f2e41" data-secondary="true"/>
<ellipse cx="375.62" cy="261.19" rx="5.01" ry="5.97" fill="#f7a48b"/>
<path d="M341.34,267.74l.58,21.19s22.14,18.87,31.19-.2l-5.39.2-.38-13.49Z" fill="#f9b499"/>
<path d="M367.34,275.44l.32,10.66s-11.05,3.53-18.68-7.41Z" fill="#f7a48b"/>
<rect x="340.28" y="227.68" width="35.15" height="53.54" rx="14.47" fill="#f9b499"/>
<path d="M329.59,245.79s6.93-.39,13.48-1.35c0,0,22.4,5.18,41.06-2.42a2.34,2.34,0,0,0,.88-3.72c-1.26-1.42-4.52-2.85-12.28-3.3,0,0-1.73-20.22-27.93-15C344.8,220,327.86,223.25,329.59,245.79Z" fill="#0071f2" data-primary="true"/>
<path d="M344.8,220c-3.23,5-5.57,10.91-5.4,17a16.65,16.65,0,0,0,1.43,5.77l-.17-.09a245.14,245.14,0,0,0,32-7.85,32.8,32.8,0,0,1,6.18,2.08c10.36,5-6.63,6.94-10.37,7.41a106.24,106.24,0,0,1-25.39.18,101.5,101.5,0,0,0,12.69.45c7.35-.09,42-2.78,16.91-9.66-9.76,3.4-21.43,5.75-32.07,7.72-3.52-7.65-.16-16.4,4.2-23Z" fill="#fff"/>
<path d="M329.59,245.79s2.08,8,4.41,11.88c0,0,4.45-1.53,7.15,4v-16.9Z" fill="#2f2e41" data-secondary="true"/>
<ellipse cx="335.66" cy="263.5" rx="5.68" ry="5.97" fill="#f9b499"/>
<circle cx="450.26" cy="390.79" r="65" transform="translate(-80.1 118.45) rotate(-13.77)" fill="#2f2e41" data-secondary="true"/>
<g opacity="0.2">
<path d="M452.52,443.37c-34.77,1.5-64.23-22-67.26-53,0,1.08,0,2.16.06,3.25A65,65,0,1,0,515.2,388c-.05-1.08-.12-2.16-.22-3.24C514.63,415.91,487.3,441.87,452.52,443.37Z"/>
</g>
<path d="M450.22,427.58A36.79,36.79,0,1,1,487,389.21h0a36.79,36.79,0,0,1-35.18,38.33C451.3,427.57,450.76,427.58,450.22,427.58Zm.07-67.58-1.35,0a30.79,30.79,0,0,0-19.49,53.45,30.79,30.79,0,0,0,51.57-24h0A30.78,30.78,0,0,0,450.29,360Z" fill="#e6e7e8"/>
<path d="M460.12,390.37c-.8-18.65-5.87-33.57-11.31-33.34s-9.21,15.54-8.41,34.18,5.87,33.57,11.31,33.34S460.92,409,460.12,390.37Z" fill="#bcbec0"/>
<path d="M456.93,383.52c-13.75-12.62-27.88-19.59-31.57-15.57s4.48,17.5,18.23,30.11,27.88,19.59,31.57,15.57S470.68,396.13,456.93,383.52Z" fill="#bcbec0"/>
<path d="M449.84,380.93c-18.65.8-33.57,5.87-33.34,11.31s15.54,9.21,34.19,8.41,33.56-5.87,33.33-11.31S468.48,380.13,449.84,380.93Z" fill="#bcbec0"/>
<path d="M443,384.12c-12.62,13.75-19.59,27.88-15.57,31.57s17.5-4.48,30.11-18.23,19.59-27.88,15.57-31.57S455.6,370.37,443,384.12Z" fill="#bcbec0"/>
<path d="M479.06,389.55a28.83,28.83,0,1,0-27.56,30A28.83,28.83,0,0,0,479.06,389.55Z" fill="#e6e7e8"/>
<path d="M461.27,390.32a11,11,0,1,0-10.54,11.48A11,11,0,0,0,461.27,390.32Z" fill="#fff"/>
<path d="M450.25,405.31a14.52,14.52,0,1,1,14.51-15.14h0a14.52,14.52,0,0,1-13.87,15.12Zm0-22h-.33a7.44,7.44,0,1,0,.33,0Z" fill="#2f2e41" data-secondary="true"/>
<path d="M274.06,352s-24,68.82,10.85,88.46c0,0,15,13.68,89.75-1.15,0,0,6.74-2.31,16.94,2.31l18,9.58a3.67,3.67,0,0,0,5-1.64h0a3.66,3.66,0,0,0-1.72-4.91l-9.57-4.57s13.48,5,19.07,2.5c0,0,2.69-2.69,0-6.74,0,0,7.51,2.5,7.51-5.2,0,0,2.5-4.24-13.87-5.78l-5.39-2.12s19.26,5.2,18.87-3.46c0,0,.2-5.78-14.06-6.16l-19.64-3.86s14.83-17.71.39-21.37c0,0-8.72,22.58-23,24.77,0,0-73.84,8.54-70.76-13.41,0,0,1.65-24,5.45-34.35Z" fill="#f9b499"/>
<path d="M422.42,436.37h-.11l-15.21-3.27a.52.52,0,0,1-.39-.6.5.5,0,0,1,.6-.38l15.21,3.27a.52.52,0,0,1,.39.6A.5.5,0,0,1,422.42,436.37Z" fill="#f7a48b"/>
<path d="M483.43,357.18a5.39,5.39,0,0,1-6.1-.94s-3.39-2.52.86-7.5l7.7-8.67a6,6,0,0,1,3.71-2c2.11-.28,4.71.53,5,6,0,0,7.25.21,5.74,6.19,0,0,6.51-.93,5.86,5.63,0,0,7.6-.5,4.42,5.9l-7.14,9a5.06,5.06,0,0,1-5.05,1.82c-1.49-.34-2.83-1.41-2.67-4.18,0,0-7.12,1-7.16-5.12C488.6,363.25,482.51,364.08,483.43,357.18Z" fill="#f9b499"/>
<path d="M483.43,357.68a.5.5,0,0,1-.38-.82l11.17-13.12a.5.5,0,0,1,.76.64l-11.17,13.13A.52.52,0,0,1,483.43,357.68Z" fill="#f7a48b"/>
<path d="M488.6,363.75a.48.48,0,0,1-.33-.13.49.49,0,0,1,0-.7l11.73-13a.5.5,0,0,1,.75.67l-11.73,13A.51.51,0,0,1,488.6,363.75Z" fill="#f7a48b"/>
<path d="M495.76,368.87a.48.48,0,0,1-.32-.11.51.51,0,0,1-.06-.71l10.43-12.49a.51.51,0,0,1,.71-.06.49.49,0,0,1,.06.7l-10.44,12.49A.48.48,0,0,1,495.76,368.87Z" fill="#f7a48b"/>
<polygon points="587.09 577.34 611.6 608.83 620.4 607.51 594.53 577.34 587.09 577.34" fill="#1a2e35"/>
<polygon points="587.09 577.34 611.6 608.83 620.4 607.51 594.53 577.34 587.09 577.34" fill="#2f2e41" data-secondary="true"/>
<polygon points="594.53 547.55 619.05 579.04 627.85 577.72 601.98 547.55 594.53 547.55" fill="#1a2e35"/>
<polygon points="594.53 547.55 619.05 579.04 627.85 577.72 601.98 547.55 594.53 547.55" fill="#2f2e41" data-secondary="true"/>
<polygon points="665.03 531.41 770.97 531.41 746.13 597.03 640.19 597.03 665.03 531.41" fill="#2f2e41" data-secondary="true"/>
<g opacity="0.3" style="isolation:isolate">
<polygon points="665.03 531.41 770.97 531.41 746.13 597.03 640.19 597.03 665.03 531.41"/>
</g>
<rect x="582.8" y="572.19" width="168.29" height="8.46" transform="translate(1333.89 1152.84) rotate(180)" fill="#2f2e41" data-secondary="true"/>
<g opacity="0.2" style="isolation:isolate">
<rect x="686.49" y="572.19" width="64.6" height="8.46" transform="translate(1437.59 1152.84) rotate(180)"/>
</g>
<rect x="592.74" y="547.35" width="168.29" height="8.46" transform="translate(1353.77 1103.16) rotate(180)" fill="#2f2e41" data-secondary="true"/>
<g opacity="0.2" style="isolation:isolate">
<rect x="696.43" y="547.35" width="64.6" height="8.46" transform="translate(1457.46 1103.16) rotate(180)"/>
</g>
<polygon points="770.79 531.87 776.67 538.69 754.33 597.2 745.61 597.2 770.79 531.87" fill="#2f2e41" data-secondary="true"/>
<path d="M540.38,566.17,529,569c.68-5.28,4.92-11.71,11.42-13.32A15.17,15.17,0,0,1,558,565a13.13,13.13,0,0,1,.77,7.43l68.55,41.25c8-6.75,17.54-1.67,21.47,3.83l-11.33,2.76a4.95,4.95,0,1,0,2.42,9.59L651.24,627c-.68,5.29-4.92,11.7-11.42,13.32A15.23,15.23,0,0,1,622,631.4a11.88,11.88,0,0,1-1-7l-68.54-41.25c-6.76,4.62-17.31,1.28-21.24-4.23l11.45-2.95a5.07,5.07,0,0,0,3.67-6.09A5,5,0,0,0,540.38,566.17Z" fill="#0071f2" data-primary="true"/>
<g opacity="0.6" style="isolation:isolate">
<path d="M540.38,566.17,529,569c.68-5.28,4.92-11.71,11.42-13.32A15.17,15.17,0,0,1,558,565a13.13,13.13,0,0,1,.77,7.43l68.55,41.25c8-6.75,17.54-1.67,21.47,3.83l-11.33,2.76a4.95,4.95,0,1,0,2.42,9.59L651.24,627c-.68,5.29-4.92,11.7-11.42,13.32A15.23,15.23,0,0,1,622,631.4a11.88,11.88,0,0,1-1-7l-68.54-41.25c-6.76,4.62-17.31,1.28-21.24-4.23l11.45-2.95a5.07,5.07,0,0,0,3.67-6.09A5,5,0,0,0,540.38,566.17Z" fill="#0071f2" data-primary="true"/>
</g>
<rect x="562.93" y="597.03" width="183.2" height="53.48" transform="translate(1309.05 1247.55) rotate(180)" fill="#2f2e41" data-secondary="true"/>
<g opacity="0.2" style="isolation:isolate">
<rect x="674.07" y="597.03" width="72.05" height="53.48" transform="translate(1420.2 1247.55) rotate(180)"/>
</g>
<path d="M810.46,637l8.28-8.29c2.15,4.87,1.84,12.56-2.89,17.31a15.2,15.2,0,0,1-19.85,1.1,13.17,13.17,0,0,1-4.49-6l-80,.11c-3.4,9.93-14.16,10.5-20.36,7.82l8.27-8.22a4.94,4.94,0,1,0-7-7l-8.27,8.3c-2.15-4.87-1.84-12.56,2.89-17.3a15.22,15.22,0,0,1,19.84-1.56,11.87,11.87,0,0,1,4.5,5.49l80-.11c3.39-7.45,14.15-10,20.36-7.35l-8.28,8.45a5.07,5.07,0,0,0,0,7.1A5,5,0,0,0,810.46,637Z" fill="#0071f2" data-primary="true"/>
<g opacity="0.6" style="isolation:isolate">
<path d="M810.46,637l8.28-8.29c2.15,4.87,1.84,12.56-2.89,17.31a15.2,15.2,0,0,1-19.85,1.1,13.17,13.17,0,0,1-4.49-6l-80,.11c-3.4,9.93-14.16,10.5-20.36,7.82l8.27-8.22a4.94,4.94,0,1,0-7-7l-8.27,8.3c-2.15-4.87-1.84-12.56,2.89-17.3a15.22,15.22,0,0,1,19.84-1.56,11.87,11.87,0,0,1,4.5,5.49l80-.11c3.39-7.45,14.15-10,20.36-7.35l-8.28,8.45a5.07,5.07,0,0,0,0,7.1A5,5,0,0,0,810.46,637Z" fill="#0071f2" data-primary="true"/>
</g>
</svg>