<?xml version="1.0" standalone="no"?>
<!DOCTYPE svg PUBLIC "-//W3C//DTD SVG 20010904//EN"
 "http://www.w3.org/TR/2001/REC-SVG-20010904/DTD/svg10.dtd">
<svg version="1.0" xmlns="http://www.w3.org/2000/svg"
 width="1000.000000pt" height="400.000000pt" viewBox="0 0 1000.000000 400.000000"
 preserveAspectRatio="xMidYMid meet">
<metadata>
Created by potrace 1.16, written by Peter Selinger 2001-2019
</metadata>
<g transform="translate(0.000000,400.000000) scale(0.100000,-0.100000)"
fill="#000000" stroke="none">
<path d="M2180 2442 c0 -10 96 -117 424 -472 239 -259 246 -268 239 -322 l-6
-41 197 5 c108 3 199 8 203 12 4 4 -38 53 -94 109 -85 87 -544 587 -624 681
l-27 31 -156 3 c-95 2 -156 0 -156 -6z"/>
<path d="M3010 2437 c0 -8 12 -24 26 -38 14 -13 37 -43 51 -66 27 -47 48 -55
58 -23 4 11 31 47 62 80 l55 60 -126 0 c-98 0 -126 -3 -126 -13z"/>
<path d="M4820 2445 c0 -3 22 -32 49 -65 27 -32 52 -68 56 -80 9 -28 17 -25
41 18 12 20 41 58 64 85 l42 47 -126 0 c-69 0 -126 -2 -126 -5z"/>
<path d="M5570 2446 c0 -2 23 -32 50 -66 28 -34 50 -69 50 -76 0 -30 31 -11
63 39 19 28 44 61 56 71 11 11 21 23 21 28 0 4 -54 8 -120 8 -66 0 -120 -2
-120 -4z"/>
<path d="M5868 2418 c4 -18 7 -205 7 -415 l0 -383 115 0 115 0 0 373 c0 204 3
391 8 415 l7 42 -130 0 -129 0 7 -32z"/>
<path d="M3805 2412 c-65 -88 -125 -186 -125 -203 0 -10 38 -95 84 -187 128
-258 160 -332 158 -374 l-1 -38 200 0 c109 0 199 2 199 5 0 3 -18 21 -40 41
-59 53 -108 138 -278 474 -85 168 -159 306 -166 307 -6 2 -20 -10 -31 -25z"/>
<path d="M4520 2411 c-83 -56 -126 -158 -101 -241 16 -53 85 -112 222 -189
181 -102 237 -141 255 -179 20 -42 14 -92 -15 -129 -28 -35 -28 -56 2 -47 66
20 136 74 163 126 8 15 14 51 14 81 0 102 -43 143 -295 281 -207 114 -252 173
-206 269 33 68 27 73 -39 28z"/>
<path d="M5269 2407 c-66 -50 -101 -107 -107 -170 -8 -102 36 -150 248 -267
253 -140 283 -177 228 -286 -24 -48 -21 -59 14 -51 86 22 158 111 158 195 0
95 -51 150 -231 251 -278 155 -320 202 -269 301 36 70 24 77 -41 27z"/>
<path d="M6653 2388 c-22 -29 -59 -80 -82 -114 l-42 -60 109 -215 c117 -229
152 -312 152 -359 l0 -30 138 1 c75 1 161 4 191 7 l54 7 -42 44 c-57 59 -120
169 -283 491 -76 151 -143 276 -147 278 -4 1 -26 -21 -48 -50z"/>
<path d="M7157 2348 c-35 -51 -69 -103 -75 -114 -10 -18 6 -57 111 -270 108
-222 122 -255 122 -301 l0 -53 198 0 c108 0 197 4 197 8 0 5 -12 19 -26 33
-59 55 -169 243 -339 583 -55 110 -105 202 -112 204 -6 2 -40 -39 -76 -90z"/>
<path d="M2295 1760 c-8 -16 -36 -53 -62 -82 l-47 -53 40 -7 c21 -4 81 -7 132
-7 l94 -1 -40 48 c-21 26 -51 66 -66 90 -14 23 -28 42 -31 42 -2 0 -11 -13
-20 -30z"/>
<path d="M3372 1705 c-40 -46 -72 -87 -72 -90 0 -3 59 -5 130 -5 74 0 130 4
130 9 0 5 -13 19 -30 31 -16 11 -42 48 -58 81 l-29 60 -71 -86z"/>
<path d="M4474 1758 c-9 -17 -36 -52 -60 -78 l-44 -47 37 -7 c50 -8 203 -8
203 1 0 3 -18 29 -39 57 -22 28 -45 63 -52 79 -16 35 -25 34 -45 -5z"/>
<path d="M5230 1766 c-4 -13 -29 -49 -54 -80 -25 -30 -46 -58 -46 -61 0 -3 54
-5 120 -5 66 0 120 3 120 6 0 3 -19 27 -41 52 -23 26 -48 62 -55 80 -17 38
-31 41 -44 8z"/>
<path d="M6242 1714 c-34 -42 -62 -80 -62 -84 0 -18 182 -28 209 -11 11 7 8
17 -17 47 -17 22 -36 58 -43 82 -7 23 -15 42 -19 42 -4 0 -34 -34 -68 -76z"/>
</g>
</svg>
