<?xml version="1.0" encoding="UTF-8" standalone="no"?>
<!DOCTYPE svg PUBLIC "-//W3C//DTD SVG 1.1//EN" "http://www.w3.org/Graphics/SVG/1.1/DTD/svg11.dtd">
<svg xmlns="http://www.w3.org/2000/svg" version="1.1" viewBox="0 0 225 225">
<path fill="#ffffff" d="M 0.00,0.00 Q 112.50,0.00 225.00,0.00 Q 225.00,112.50 225.00,225.00 Q 112.50,225.00 0.00,225.00 Q 0.00,112.50 0.00,0.00 ZM 125.06,114.63 L 124.94,93.31 A 0.51,0.51 89.8 0 0 124.43,92.80 L 113.89,92.75 A 0.65,0.64 90.0 0 0 113.25,93.40 L 113.25,144.23 A 0.52,0.52 90.0 0 0 113.77,144.75 L 124.42,144.75 A 0.77,0.77 -78.5 0 0 125.13,144.28 Q 142.54,103.20 178.17,76.97 Q 191.61,67.08 207.15,61.03 Q 208.24,60.60 207.50,60.33 Q 207.28,60.24 206.99,60.30 Q 182.00,64.88 161.30,79.54 Q 140.77,94.08 125.48,114.76 Q 125.07,115.32 125.06,114.63 ZM 74.00,92.54 Q 58.71,97.53 55.25,111.09 Q 52.63,121.32 57.13,130.53 Q 62.41,141.32 75.75,144.71 Q 80.50,145.41 85.25,144.71 Q 101.99,141.61 106.50,126.25 Q 110.04,114.22 103.69,104.06 Q 97.98,94.93 87.00,92.29 Q 80.46,90.95 74.00,92.54 ZM 143.94,119.57 L 137.13,130.57 A 2.42,2.04 53.0 0 0 137.02,132.60 L 141.57,143.94 A 1.22,1.10 77.7 0 0 142.64,144.71 L 156.50,144.53 A 0.34,0.33 76.9 0 0 156.79,144.05 L 144.59,119.61 Q 144.29,119.00 143.94,119.57 Z"/>
<path fill="#d42127" d="M 125.06,114.63 Q 125.07,115.32 125.48,114.76 Q 140.77,94.08 161.30,79.54 Q 182.00,64.88 206.99,60.30 Q 207.28,60.24 207.50,60.33 Q 208.24,60.60 207.15,61.03 Q 191.61,67.08 178.17,76.97 Q 142.54,103.20 125.13,144.28 A 0.77,0.77 -78.5 0 1 124.42,144.75 L 113.77,144.75 A 0.52,0.52 -90.0 0 1 113.25,144.23 L 113.25,93.40 A 0.65,0.64 -90.0 0 1 113.89,92.75 L 124.43,92.80 A 0.51,0.51 -89.6 0 1 124.94,93.31 L 125.06,114.63 Z"/>
<path fill="#353535" d="M 87.00,92.29 Q 86.93,93.77 85.75,93.50 Q 80.61,92.34 76.50,93.26 Q 74.91,93.61 74.00,92.54 Q 80.46,90.95 87.00,92.29 Z"/>
<path fill="#353535" d="M 87.00,92.29 Q 97.98,94.93 103.69,104.06 Q 110.04,114.22 106.50,126.25 Q 101.99,141.61 85.25,144.71 Q 84.73,144.09 82.75,144.00 Q 79.64,143.86 76.53,143.82 A 0.69,0.57 6.3 0 0 75.87,144.25 L 75.75,144.71 Q 62.41,141.32 57.13,130.53 Q 52.63,121.32 55.25,111.09 Q 58.71,97.53 74.00,92.54 Q 74.91,93.61 76.50,93.26 Q 80.61,92.34 85.75,93.50 Q 86.93,93.77 87.00,92.29 ZM 95.87,118.37 A 14.92 14.92 0.0 0 0 80.95,103.45 A 14.92 14.92 0.0 0 0 66.03,118.37 A 14.92 14.92 0.0 0 0 80.95,133.29 A 14.92 14.92 0.0 0 0 95.87,118.37 Z"/>
<circle fill="#ffffff" cx="80.95" cy="118.37" r="14.92"/>
<path fill="#353535" d="M 143.94,119.57 Q 144.29,119.00 144.59,119.61 L 156.79,144.05 A 0.34,0.33 76.9 0 1 156.50,144.53 L 142.64,144.71 A 1.22,1.10 77.7 0 1 141.57,143.94 L 137.02,132.60 A 2.42,2.04 53.0 0 1 137.13,130.57 L 143.94,119.57 Z"/>
<path fill="#353535" d="M 85.25,144.71 Q 80.50,145.41 75.75,144.71 L 75.87,144.25 A 0.69,0.57 6.3 0 1 76.53,143.82 Q 79.64,143.86 82.75,144.00 Q 84.73,144.09 85.25,144.71 Z"/>
</svg>
